<svg xmlns="http://www.w3.org/2000/svg" xmlns:xlink="http://www.w3.org/1999/xlink" width="500" zoomAndPan="magnify" viewBox="0 0 375 374.999991" height="500" preserveAspectRatio="xMidYMid meet" version="1.0"><defs><g/><clipPath id="c1775f8dc2"><path d="M 80.519531 89 L 149.519531 89 L 149.519531 238.976562 L 80.519531 238.976562 Z M 80.519531 89 " clip-rule="nonzero"/></clipPath></defs><rect x="-37.5" width="450" fill="#ffffff" y="-37.499999" height="449.999989" fill-opacity="1"/><rect x="-37.5" width="450" fill="#ffffff" y="-37.499999" height="449.999989" fill-opacity="1"/><g clip-path="url(#c1775f8dc2)"><path fill="#b69262" d="M 187.925781 165.222656 C 188.191406 165.132812 188.460938 165.039062 188.730469 164.945312 C 191.285156 164.011719 193.90625 162.890625 196.707031 161.015625 C 197.046875 160.792969 197.414062 160.515625 197.761719 160.261719 C 198.09375 160.007812 198.363281 159.769531 198.667969 159.519531 C 199.242188 159.015625 199.800781 158.5 200.328125 157.960938 C 201.390625 156.886719 202.359375 155.746094 203.234375 154.550781 C 204.976562 152.15625 206.355469 149.539062 207.300781 146.75 C 208.246094 143.960938 208.769531 140.988281 208.714844 137.976562 C 208.6875 136.476562 208.527344 134.96875 208.203125 133.488281 C 208.042969 132.734375 207.851562 132.070312 207.640625 131.382812 C 207.425781 130.703125 207.179688 130.03125 206.910156 129.367188 C 205.820312 126.722656 204.246094 124.339844 202.507812 122.394531 C 200.769531 120.429688 198.898438 118.855469 197.070312 117.476562 C 193.414062 114.726562 189.902344 112.652344 187.003906 110.105469 C 181.152344 104.996094 176.78125 97.585938 175.417969 89.238281 C 175.394531 89.113281 175.289062 89.011719 175.160156 89.003906 C 175.003906 88.992188 174.867188 89.105469 174.859375 89.261719 C 174.226562 97.832031 176.761719 106.902344 182.101562 114.449219 C 184.800781 118.261719 188.035156 121.371094 190.519531 124.417969 C 191.765625 125.9375 192.828125 127.433594 193.578125 128.890625 C 194.332031 130.351562 194.765625 131.753906 194.945312 133.140625 C 194.984375 133.492188 195.019531 133.839844 195.03125 134.191406 C 195.039062 134.539062 195.046875 134.914062 195.019531 135.203125 C 194.980469 135.824219 194.867188 136.441406 194.699219 137.046875 C 194.375 138.253906 193.804688 139.433594 193.0625 140.515625 C 192.316406 141.597656 191.386719 142.578125 190.363281 143.378906 C 189.851562 143.777344 189.3125 144.132812 188.769531 144.429688 C 188.5 144.585938 188.222656 144.714844 187.953125 144.839844 C 187.820312 144.894531 187.660156 144.96875 187.558594 145.007812 L 187.269531 145.09375 C 186.417969 145.363281 185.027344 145.691406 183.515625 145.886719 C 181.996094 146.085938 180.320312 146.1875 178.625 146.183594 C 178.070312 146.183594 177.507812 146.167969 176.953125 146.144531 C 168.011719 140.855469 157.183594 137.929688 148.027344 137.703125 C 138.796875 137.476562 128.589844 140.65625 119.929688 145.871094 C 119.917969 145.871094 119.910156 145.875 119.902344 145.875 C 118.246094 146.078125 116.515625 146.179688 114.820312 146.183594 C 113.125 146.183594 111.449219 146.085938 109.929688 145.886719 C 108.417969 145.691406 107.027344 145.363281 106.175781 145.09375 L 105.886719 145.007812 C 105.78125 144.96875 105.625 144.894531 105.492188 144.839844 C 105.21875 144.714844 104.941406 144.585938 104.671875 144.429688 C 104.132812 144.132812 103.59375 143.777344 103.082031 143.378906 C 102.058594 142.578125 101.128906 141.597656 100.382812 140.515625 C 99.640625 139.433594 99.070312 138.253906 98.746094 137.046875 C 98.578125 136.441406 98.464844 135.824219 98.421875 135.203125 C 98.394531 134.910156 98.40625 134.539062 98.414062 134.191406 C 98.429688 133.839844 98.460938 133.492188 98.5 133.140625 C 98.679688 131.753906 99.113281 130.351562 99.867188 128.890625 C 100.617188 127.433594 101.679688 125.9375 102.925781 124.417969 C 105.410156 121.371094 108.640625 118.261719 111.34375 114.449219 C 116.683594 106.902344 119.21875 97.832031 118.585938 89.261719 C 118.578125 89.136719 118.480469 89.027344 118.347656 89.003906 C 118.195312 88.980469 118.050781 89.085938 118.027344 89.238281 C 116.664062 97.585938 112.289062 104.996094 106.4375 110.105469 C 103.542969 112.652344 100.03125 114.726562 96.375 117.476562 C 94.550781 118.859375 92.675781 120.429688 90.933594 122.394531 C 89.199219 124.34375 87.625 126.722656 86.535156 129.367188 C 86.265625 130.03125 86.019531 130.699219 85.804688 131.382812 C 85.59375 132.066406 85.402344 132.730469 85.238281 133.488281 C 84.917969 134.964844 84.757812 136.472656 84.730469 137.976562 C 84.675781 140.988281 85.199219 143.957031 86.140625 146.75 C 87.09375 149.539062 88.46875 152.15625 90.210938 154.550781 C 91.085938 155.746094 92.054688 156.886719 93.113281 157.960938 C 93.644531 158.5 94.203125 159.011719 94.777344 159.519531 C 95.078125 159.765625 95.347656 160.007812 95.683594 160.261719 C 96.03125 160.511719 96.398438 160.792969 96.738281 161.015625 C 99.539062 162.890625 102.160156 164.011719 104.714844 164.945312 C 104.984375 165.039062 105.253906 165.132812 105.519531 165.222656 L 80.59375 165.222656 C 83.601562 172.097656 91 176.957031 99.660156 176.957031 C 103.972656 176.957031 107.972656 175.75 111.269531 173.691406 C 121.113281 199.226562 132.597656 203.773438 132.664062 228.308594 C 132.503906 231.128906 133.320312 233.632812 135.167969 235.007812 C 138.152344 237.21875 142.984375 238.792969 148.386719 238.886719 C 153.796875 238.976562 158.550781 237.546875 161.488281 235.375 C 163.316406 234.023438 164.121094 231.488281 164.015625 228.628906 C 164.761719 204.863281 173.984375 198.976562 184.113281 173.988281 C 187.316406 175.867188 191.136719 176.960938 195.238281 176.960938 C 203.894531 176.960938 211.292969 172.097656 214.300781 165.226562 L 187.925781 165.226562 Z M 187.925781 165.222656 " fill-opacity="1" fill-rule="nonzero"/></g><path fill="#ffffff" d="M 137.898438 226.15625 C 139.714844 226.375 141.257812 227.125 142.53125 228.179688 C 143.808594 229.226562 144.683594 230.628906 145.183594 232.074219 C 145.21875 232.183594 145.160156 232.300781 145.054688 232.339844 C 144.964844 232.367188 144.863281 232.328125 144.8125 232.253906 C 144 231.027344 142.921875 230.042969 141.683594 229.46875 C 140.46875 228.890625 139.066406 228.660156 137.898438 228.835938 C 137.160156 228.949219 136.464844 228.4375 136.355469 227.699219 C 136.246094 226.957031 136.753906 226.265625 137.496094 226.15625 C 137.617188 226.136719 137.738281 226.132812 137.855469 226.148438 Z M 137.898438 226.15625 " fill-opacity="1" fill-rule="nonzero"/><path fill="#ffffff" d="M 126.761719 190.585938 C 129.203125 192.019531 131.226562 194.003906 132.933594 196.230469 C 134.605469 198.484375 136.082031 200.910156 137.203125 203.492188 C 138.347656 206.066406 139.164062 208.765625 139.703125 211.492188 L 140.0625 213.546875 L 140.316406 215.609375 C 140.457031 216.984375 140.566406 218.359375 140.605469 219.738281 C 140.609375 219.878906 140.496094 219.996094 140.355469 220.003906 C 140.226562 220.007812 140.121094 219.917969 140.09375 219.796875 L 139.222656 215.796875 C 138.898438 214.472656 138.546875 213.164062 138.183594 211.863281 C 137.425781 209.273438 136.480469 206.761719 135.316406 204.367188 C 134.132812 201.980469 132.753906 199.699219 131.136719 197.574219 C 129.5625 195.417969 127.890625 193.339844 126.402344 190.957031 C 126.324219 190.835938 126.359375 190.667969 126.484375 190.589844 C 126.570312 190.535156 126.679688 190.539062 126.761719 190.585938 Z M 126.761719 190.585938 " fill-opacity="1" fill-rule="nonzero"/><g fill="#543042" fill-opacity="1"><g transform="translate(163.368289, 174.835491)"><g><path d="M 3.5625 0 L 1.859375 0 C 1.597656 0 1.46875 -0.117188 1.46875 -0.359375 L 1.46875 -7.5 C 1.46875 -7.769531 1.597656 -7.90625 1.859375 -7.90625 L 3.78125 -7.90625 C 4.019531 -7.90625 4.140625 -7.769531 4.140625 -7.5 L 4.140625 -6.859375 C 4.140625 -6.472656 4.375 -5.957031 4.84375 -5.3125 C 5.3125 -4.675781 5.78125 -4.15625 6.25 -3.75 C 6.71875 -3.34375 7.34375 -2.988281 8.125 -2.6875 C 8.90625 -2.394531 9.753906 -2.25 10.671875 -2.25 C 12.242188 -2.25 13.46875 -2.570312 14.34375 -3.21875 C 15.226562 -3.875 15.671875 -4.785156 15.671875 -5.953125 C 15.671875 -6.617188 15.421875 -7.191406 14.921875 -7.671875 C 14.429688 -8.148438 13.785156 -8.53125 12.984375 -8.8125 C 12.191406 -9.09375 11.3125 -9.351562 10.34375 -9.59375 C 9.382812 -9.84375 8.421875 -10.125 7.453125 -10.4375 C 6.492188 -10.757812 5.613281 -11.140625 4.8125 -11.578125 C 4.019531 -12.015625 3.375 -12.625 2.875 -13.40625 C 2.382812 -14.1875 2.140625 -15.109375 2.140625 -16.171875 C 2.140625 -17.878906 2.785156 -19.289062 4.078125 -20.40625 C 5.367188 -21.519531 7.097656 -22.078125 9.265625 -22.078125 C 12.015625 -22.078125 14.03125 -21.273438 15.3125 -19.671875 L 15.25 -21.5625 C 15.25 -21.800781 15.378906 -21.921875 15.640625 -21.921875 L 17.359375 -21.921875 C 17.597656 -21.921875 17.71875 -21.800781 17.71875 -21.5625 L 17.71875 -14.921875 C 17.71875 -14.671875 17.597656 -14.546875 17.359375 -14.546875 L 15.4375 -14.546875 C 15.1875 -14.546875 15.0625 -14.671875 15.0625 -14.921875 L 15.0625 -15.765625 C 15.0625 -16.597656 14.59375 -17.441406 13.65625 -18.296875 C 12.726562 -19.148438 11.359375 -19.578125 9.546875 -19.578125 C 8.203125 -19.578125 7.117188 -19.253906 6.296875 -18.609375 C 5.472656 -17.972656 5.0625 -17.160156 5.0625 -16.171875 C 5.0625 -15.453125 5.316406 -14.835938 5.828125 -14.328125 C 6.335938 -13.828125 7 -13.421875 7.8125 -13.109375 C 8.625 -12.804688 9.515625 -12.523438 10.484375 -12.265625 C 11.460938 -12.015625 12.441406 -11.738281 13.421875 -11.4375 C 14.398438 -11.132812 15.296875 -10.769531 16.109375 -10.34375 C 16.921875 -9.914062 17.578125 -9.328125 18.078125 -8.578125 C 18.585938 -7.835938 18.84375 -6.960938 18.84375 -5.953125 C 18.84375 -4.160156 18.203125 -2.679688 16.921875 -1.515625 C 15.640625 -0.359375 13.726562 0.21875 11.1875 0.21875 C 9.320312 0.21875 7.78125 -0.15625 6.5625 -0.90625 C 5.34375 -1.664062 4.457031 -2.484375 3.90625 -3.359375 L 3.9375 -0.359375 C 3.9375 -0.117188 3.8125 0 3.5625 0 Z M 3.5625 0 "/></g></g></g><g fill="#543042" fill-opacity="1"><g transform="translate(183.676126, 174.835491)"><g><path d="M 9.1875 0 L 1.859375 0 C 1.597656 0 1.46875 -0.117188 1.46875 -0.359375 L 1.46875 -1.921875 C 1.46875 -2.160156 1.597656 -2.28125 1.859375 -2.28125 L 4.171875 -2.28125 L 4.171875 -19.609375 L 1.859375 -19.609375 C 1.597656 -19.609375 1.46875 -19.734375 1.46875 -19.984375 L 1.46875 -21.53125 C 1.46875 -21.78125 1.597656 -21.90625 1.859375 -21.90625 L 9.1875 -21.90625 C 9.445312 -21.90625 9.578125 -21.78125 9.578125 -21.53125 L 9.578125 -19.984375 C 9.578125 -19.734375 9.445312 -19.609375 9.1875 -19.609375 L 6.828125 -19.609375 L 6.828125 -2.28125 L 9.1875 -2.28125 C 9.445312 -2.28125 9.578125 -2.160156 9.578125 -1.921875 L 9.578125 -0.359375 C 9.578125 -0.117188 9.445312 0 9.1875 0 Z M 9.1875 0 "/></g></g></g><g fill="#543042" fill-opacity="1"><g transform="translate(194.714318, 174.835491)"><g><path d="M 26.203125 0 L 19.15625 0 C 18.90625 0 18.78125 -0.117188 18.78125 -0.359375 L 18.78125 -1.921875 C 18.78125 -2.160156 18.90625 -2.28125 19.15625 -2.28125 L 21.203125 -2.28125 L 21.203125 -17.46875 L 21.171875 -17.46875 L 15.375 -3.078125 C 15.125 -2.472656 14.671875 -2.171875 14.015625 -2.171875 C 13.367188 -2.171875 12.925781 -2.472656 12.6875 -3.078125 L 6.890625 -17.46875 L 6.828125 -17.46875 L 6.828125 -2.28125 L 8.875 -2.28125 C 9.132812 -2.28125 9.265625 -2.160156 9.265625 -1.921875 L 9.265625 -0.359375 C 9.265625 -0.117188 9.132812 0 8.875 0 L 1.859375 0 C 1.597656 0 1.46875 -0.117188 1.46875 -0.359375 L 1.46875 -1.921875 C 1.46875 -2.160156 1.597656 -2.28125 1.859375 -2.28125 L 4.171875 -2.28125 L 4.171875 -19.609375 L 1.859375 -19.609375 C 1.597656 -19.609375 1.46875 -19.734375 1.46875 -19.984375 L 1.46875 -21.53125 C 1.46875 -21.78125 1.597656 -21.90625 1.859375 -21.90625 L 6.5625 -21.90625 C 7.25 -21.90625 7.722656 -21.554688 7.984375 -20.859375 L 12.53125 -9.875 L 13.96875 -6.03125 L 14.09375 -6.03125 C 14.65625 -7.625 15.125 -8.890625 15.5 -9.828125 L 20.0625 -20.859375 C 20.332031 -21.554688 20.820312 -21.90625 21.53125 -21.90625 L 26.203125 -21.90625 C 26.441406 -21.90625 26.5625 -21.78125 26.5625 -21.53125 L 26.5625 -19.984375 C 26.5625 -19.734375 26.441406 -19.609375 26.203125 -19.609375 L 23.84375 -19.609375 L 23.84375 -2.28125 L 26.203125 -2.28125 C 26.441406 -2.28125 26.5625 -2.160156 26.5625 -1.921875 L 26.5625 -0.359375 C 26.5625 -0.117188 26.441406 0 26.203125 0 Z M 26.203125 0 "/></g></g></g><g fill="#543042" fill-opacity="1"><g transform="translate(222.736686, 174.835491)"><g><path d="M 9.828125 0 L 1.859375 0 C 1.597656 0 1.46875 -0.117188 1.46875 -0.359375 L 1.46875 -1.921875 C 1.46875 -2.160156 1.597656 -2.28125 1.859375 -2.28125 L 4.171875 -2.28125 L 4.171875 -19.609375 L 1.859375 -19.609375 C 1.597656 -19.609375 1.46875 -19.734375 1.46875 -19.984375 L 1.46875 -21.53125 C 1.46875 -21.78125 1.597656 -21.90625 1.859375 -21.90625 L 11.25 -21.90625 C 13.40625 -21.90625 15.171875 -21.273438 16.546875 -20.015625 C 17.921875 -18.765625 18.609375 -17.078125 18.609375 -14.953125 C 18.609375 -12.828125 17.9375 -11.179688 16.59375 -10.015625 C 15.25 -8.847656 13.359375 -8.265625 10.921875 -8.265625 L 6.828125 -8.265625 L 6.828125 -2.28125 L 9.828125 -2.28125 C 10.066406 -2.28125 10.1875 -2.160156 10.1875 -1.921875 L 10.1875 -0.359375 C 10.1875 -0.117188 10.066406 0 9.828125 0 Z M 6.828125 -10.4375 L 10.796875 -10.4375 C 14.210938 -10.4375 15.921875 -11.9375 15.921875 -14.9375 C 15.921875 -16.507812 15.4375 -17.679688 14.46875 -18.453125 C 13.507812 -19.222656 12.296875 -19.609375 10.828125 -19.609375 L 6.828125 -19.609375 Z M 6.828125 -10.4375 "/></g></g></g><g fill="#543042" fill-opacity="1"><g transform="translate(242.800581, 174.835491)"><g><path d="M 18.546875 0 L 1.859375 0 C 1.597656 0 1.46875 -0.117188 1.46875 -0.359375 L 1.46875 -1.921875 C 1.46875 -2.160156 1.597656 -2.28125 1.859375 -2.28125 L 4.171875 -2.28125 L 4.171875 -19.609375 L 1.859375 -19.609375 C 1.597656 -19.609375 1.46875 -19.734375 1.46875 -19.984375 L 1.46875 -21.53125 C 1.46875 -21.78125 1.597656 -21.90625 1.859375 -21.90625 L 9.15625 -21.90625 C 9.414062 -21.90625 9.546875 -21.769531 9.546875 -21.5 L 9.546875 -20.015625 C 9.546875 -19.742188 9.414062 -19.609375 9.15625 -19.609375 L 6.828125 -19.609375 L 6.828125 -2.28125 L 16.53125 -2.28125 L 16.53125 -5.28125 C 16.53125 -5.519531 16.660156 -5.640625 16.921875 -5.640625 L 18.578125 -5.640625 C 18.816406 -5.640625 18.9375 -5.519531 18.9375 -5.28125 L 18.9375 -0.390625 C 18.9375 -0.128906 18.804688 0 18.546875 0 Z M 18.546875 0 "/></g></g></g><g fill="#543042" fill-opacity="1"><g transform="translate(263.230389, 174.835491)"><g><path d="M 18.0625 0 L 1.859375 0 C 1.597656 0 1.46875 -0.117188 1.46875 -0.359375 L 1.46875 -1.921875 C 1.46875 -2.160156 1.597656 -2.28125 1.859375 -2.28125 L 4.171875 -2.28125 L 4.171875 -19.609375 L 1.859375 -19.609375 C 1.597656 -19.609375 1.46875 -19.734375 1.46875 -19.984375 L 1.46875 -21.53125 C 1.46875 -21.78125 1.597656 -21.90625 1.859375 -21.90625 L 18.0625 -21.90625 C 18.320312 -21.90625 18.453125 -21.78125 18.453125 -21.53125 L 18.453125 -16.625 C 18.453125 -16.351562 18.320312 -16.21875 18.0625 -16.21875 L 16.40625 -16.21875 C 16.164062 -16.21875 16.046875 -16.351562 16.046875 -16.625 L 16.046875 -19.609375 L 6.828125 -19.609375 L 6.828125 -12.046875 L 14.546875 -12.046875 C 14.804688 -12.046875 14.9375 -11.925781 14.9375 -11.6875 L 14.9375 -10.125 C 14.9375 -9.882812 14.804688 -9.765625 14.546875 -9.765625 L 6.828125 -9.765625 L 6.828125 -2.28125 L 16.015625 -2.28125 L 16.015625 -5.28125 C 16.015625 -5.519531 16.144531 -5.640625 16.40625 -5.640625 L 18.0625 -5.640625 C 18.320312 -5.640625 18.453125 -5.519531 18.453125 -5.28125 L 18.453125 -0.359375 C 18.453125 -0.117188 18.320312 0 18.0625 0 Z M 18.0625 0 "/></g></g></g><g fill="#543042" fill-opacity="1"><g transform="translate(163.368289, 195.898624)"><g><path d="M 6.890625 0 L 3.53125 0 C 3.40625 0 3.34375 -0.0625 3.34375 -0.1875 L 3.34375 -0.890625 C 3.34375 -1.015625 3.40625 -1.078125 3.53125 -1.078125 L 4.625 -1.078125 L 4.625 -9.265625 L 1.90625 -9.265625 L 1.90625 -7.734375 C 1.90625 -7.597656 1.835938 -7.53125 1.703125 -7.53125 L 0.890625 -7.53125 C 0.753906 -7.53125 0.6875 -7.597656 0.6875 -7.734375 L 0.6875 -10.15625 C 0.6875 -10.28125 0.753906 -10.34375 0.890625 -10.34375 L 9.578125 -10.34375 C 9.710938 -10.34375 9.78125 -10.28125 9.78125 -10.15625 L 9.78125 -7.734375 C 9.78125 -7.597656 9.710938 -7.53125 9.578125 -7.53125 L 8.765625 -7.53125 C 8.640625 -7.53125 8.578125 -7.597656 8.578125 -7.734375 L 8.578125 -9.265625 L 5.875 -9.265625 L 5.875 -1.078125 L 6.890625 -1.078125 C 7.023438 -1.078125 7.09375 -1.015625 7.09375 -0.890625 L 7.09375 -0.1875 C 7.09375 -0.0625 7.023438 0 6.890625 0 Z M 6.890625 0 "/></g></g></g><g fill="#543042" fill-opacity="1"><g transform="translate(173.830248, 195.898624)"><g><path d="M 9.4375 0 L 8.1875 0 C 7.84375 0 7.550781 -0.226562 7.3125 -0.6875 L 5.96875 -3.4375 C 5.851562 -3.675781 5.726562 -3.851562 5.59375 -3.96875 C 5.46875 -4.09375 5.289062 -4.15625 5.0625 -4.15625 L 3.234375 -4.15625 L 3.234375 -1.078125 L 4.53125 -1.078125 C 4.644531 -1.078125 4.703125 -1.019531 4.703125 -0.90625 L 4.703125 -0.171875 C 4.703125 -0.0546875 4.644531 0 4.53125 0 L 0.875 0 C 0.75 0 0.6875 -0.0546875 0.6875 -0.171875 L 0.6875 -0.90625 C 0.6875 -1.019531 0.75 -1.078125 0.875 -1.078125 L 1.96875 -1.078125 L 1.96875 -9.265625 L 0.875 -9.265625 C 0.75 -9.265625 0.6875 -9.320312 0.6875 -9.4375 L 0.6875 -10.171875 C 0.6875 -10.285156 0.75 -10.34375 0.875 -10.34375 L 5.3125 -10.34375 C 6.34375 -10.34375 7.175781 -10.070312 7.8125 -9.53125 C 8.457031 -8.988281 8.78125 -8.222656 8.78125 -7.234375 C 8.78125 -5.722656 8.078125 -4.78125 6.671875 -4.40625 C 6.847656 -4.257812 7.070312 -3.9375 7.34375 -3.4375 L 8.5625 -1.078125 L 9.4375 -1.078125 C 9.550781 -1.078125 9.609375 -1.019531 9.609375 -0.90625 L 9.609375 -0.171875 C 9.609375 -0.0546875 9.550781 0 9.4375 0 Z M 3.234375 -5.1875 L 5.078125 -5.1875 C 6.703125 -5.1875 7.515625 -5.851562 7.515625 -7.1875 C 7.515625 -8.570312 6.703125 -9.265625 5.078125 -9.265625 L 3.234375 -9.265625 Z M 3.234375 -5.1875 "/></g></g></g><g fill="#543042" fill-opacity="1"><g transform="translate(184.119516, 195.898624)"><g><path d="M 8.53125 0 L 0.875 0 C 0.75 0 0.6875 -0.0546875 0.6875 -0.171875 L 0.6875 -0.90625 C 0.6875 -1.019531 0.75 -1.078125 0.875 -1.078125 L 1.96875 -1.078125 L 1.96875 -9.265625 L 0.875 -9.265625 C 0.75 -9.265625 0.6875 -9.320312 0.6875 -9.4375 L 0.6875 -10.171875 C 0.6875 -10.285156 0.75 -10.34375 0.875 -10.34375 L 8.53125 -10.34375 C 8.65625 -10.34375 8.71875 -10.285156 8.71875 -10.171875 L 8.71875 -7.84375 C 8.71875 -7.726562 8.65625 -7.671875 8.53125 -7.671875 L 7.75 -7.671875 C 7.632812 -7.671875 7.578125 -7.726562 7.578125 -7.84375 L 7.578125 -9.265625 L 3.234375 -9.265625 L 3.234375 -5.6875 L 6.875 -5.6875 C 7 -5.6875 7.0625 -5.628906 7.0625 -5.515625 L 7.0625 -4.78125 C 7.0625 -4.664062 7 -4.609375 6.875 -4.609375 L 3.234375 -4.609375 L 3.234375 -1.078125 L 7.5625 -1.078125 L 7.5625 -2.5 C 7.5625 -2.613281 7.625 -2.671875 7.75 -2.671875 L 8.53125 -2.671875 C 8.65625 -2.671875 8.71875 -2.613281 8.71875 -2.5 L 8.71875 -0.171875 C 8.71875 -0.0546875 8.65625 0 8.53125 0 Z M 8.53125 0 "/></g></g></g><g fill="#543042" fill-opacity="1"><g transform="translate(193.516568, 195.898624)"><g><path d="M 9.65625 0 L 8.875 0 C 8.6875 0 8.539062 -0.0351562 8.4375 -0.109375 C 8.332031 -0.179688 8.234375 -0.296875 8.140625 -0.453125 L 3.96875 -6.953125 L 3.25 -8.171875 L 3.234375 -8.171875 L 3.234375 -1.078125 L 4.34375 -1.078125 C 4.46875 -1.078125 4.53125 -1.019531 4.53125 -0.90625 L 4.53125 -0.171875 C 4.53125 -0.0546875 4.46875 0 4.34375 0 L 0.875 0 C 0.75 0 0.6875 -0.0546875 0.6875 -0.171875 L 0.6875 -0.90625 C 0.6875 -1.019531 0.75 -1.078125 0.875 -1.078125 L 1.96875 -1.078125 L 1.96875 -9.265625 L 0.875 -9.265625 C 0.75 -9.265625 0.6875 -9.320312 0.6875 -9.4375 L 0.6875 -10.171875 C 0.6875 -10.285156 0.75 -10.34375 0.875 -10.34375 L 2.890625 -10.34375 C 3.171875 -10.34375 3.414062 -10.179688 3.625 -9.859375 L 7.734375 -3.421875 L 8.5625 -2.03125 L 8.59375 -2.03125 L 8.59375 -9.265625 L 7.484375 -9.265625 C 7.359375 -9.265625 7.296875 -9.320312 7.296875 -9.4375 L 7.296875 -10.171875 C 7.296875 -10.285156 7.359375 -10.34375 7.484375 -10.34375 L 10.953125 -10.34375 C 11.066406 -10.34375 11.125 -10.285156 11.125 -10.171875 L 11.125 -9.4375 C 11.125 -9.320312 11.066406 -9.265625 10.953125 -9.265625 L 9.84375 -9.265625 L 9.84375 -0.171875 C 9.84375 -0.0546875 9.78125 0 9.65625 0 Z M 9.65625 0 "/></g></g></g><g fill="#543042" fill-opacity="1"><g transform="translate(205.316845, 195.898624)"><g><path d="M 4.921875 0 L 0.796875 0 C 0.679688 0 0.625 -0.0546875 0.625 -0.171875 L 0.625 -0.90625 C 0.625 -1.019531 0.679688 -1.078125 0.796875 -1.078125 L 1.90625 -1.078125 L 1.90625 -9.265625 L 0.796875 -9.265625 C 0.679688 -9.265625 0.625 -9.320312 0.625 -9.4375 L 0.625 -10.171875 C 0.625 -10.285156 0.679688 -10.34375 0.796875 -10.34375 L 4.6875 -10.34375 C 6.28125 -10.34375 7.546875 -9.882812 8.484375 -8.96875 C 9.421875 -8.050781 9.890625 -6.789062 9.890625 -5.1875 C 9.890625 -3.582031 9.441406 -2.316406 8.546875 -1.390625 C 7.660156 -0.460938 6.453125 0 4.921875 0 Z M 3.15625 -1.078125 L 4.578125 -1.078125 C 7.253906 -1.097656 8.59375 -2.457031 8.59375 -5.15625 C 8.59375 -6.457031 8.25 -7.46875 7.5625 -8.1875 C 6.875 -8.90625 5.863281 -9.265625 4.53125 -9.265625 L 3.15625 -9.265625 Z M 3.15625 -1.078125 "/></g></g></g><g fill="#543042" fill-opacity="1"><g transform="translate(215.965881, 195.898624)"><g/></g></g><g fill="#543042" fill-opacity="1"><g transform="translate(220.470138, 195.898624)"><g><path d="M 6.890625 0 L 3.53125 0 C 3.40625 0 3.34375 -0.0625 3.34375 -0.1875 L 3.34375 -0.890625 C 3.34375 -1.015625 3.40625 -1.078125 3.53125 -1.078125 L 4.625 -1.078125 L 4.625 -9.265625 L 1.90625 -9.265625 L 1.90625 -7.734375 C 1.90625 -7.597656 1.835938 -7.53125 1.703125 -7.53125 L 0.890625 -7.53125 C 0.753906 -7.53125 0.6875 -7.597656 0.6875 -7.734375 L 0.6875 -10.15625 C 0.6875 -10.28125 0.753906 -10.34375 0.890625 -10.34375 L 9.578125 -10.34375 C 9.710938 -10.34375 9.78125 -10.28125 9.78125 -10.15625 L 9.78125 -7.734375 C 9.78125 -7.597656 9.710938 -7.53125 9.578125 -7.53125 L 8.765625 -7.53125 C 8.640625 -7.53125 8.578125 -7.597656 8.578125 -7.734375 L 8.578125 -9.265625 L 5.875 -9.265625 L 5.875 -1.078125 L 6.890625 -1.078125 C 7.023438 -1.078125 7.09375 -1.015625 7.09375 -0.890625 L 7.09375 -0.1875 C 7.09375 -0.0625 7.023438 0 6.890625 0 Z M 6.890625 0 "/></g></g></g><g fill="#543042" fill-opacity="1"><g transform="translate(230.932097, 195.898624)"><g><path d="M 9.4375 0 L 8.1875 0 C 7.84375 0 7.550781 -0.226562 7.3125 -0.6875 L 5.96875 -3.4375 C 5.851562 -3.675781 5.726562 -3.851562 5.59375 -3.96875 C 5.46875 -4.09375 5.289062 -4.15625 5.0625 -4.15625 L 3.234375 -4.15625 L 3.234375 -1.078125 L 4.53125 -1.078125 C 4.644531 -1.078125 4.703125 -1.019531 4.703125 -0.90625 L 4.703125 -0.171875 C 4.703125 -0.0546875 4.644531 0 4.53125 0 L 0.875 0 C 0.75 0 0.6875 -0.0546875 0.6875 -0.171875 L 0.6875 -0.90625 C 0.6875 -1.019531 0.75 -1.078125 0.875 -1.078125 L 1.96875 -1.078125 L 1.96875 -9.265625 L 0.875 -9.265625 C 0.75 -9.265625 0.6875 -9.320312 0.6875 -9.4375 L 0.6875 -10.171875 C 0.6875 -10.285156 0.75 -10.34375 0.875 -10.34375 L 5.3125 -10.34375 C 6.34375 -10.34375 7.175781 -10.070312 7.8125 -9.53125 C 8.457031 -8.988281 8.78125 -8.222656 8.78125 -7.234375 C 8.78125 -5.722656 8.078125 -4.78125 6.671875 -4.40625 C 6.847656 -4.257812 7.070312 -3.9375 7.34375 -3.4375 L 8.5625 -1.078125 L 9.4375 -1.078125 C 9.550781 -1.078125 9.609375 -1.019531 9.609375 -0.90625 L 9.609375 -0.171875 C 9.609375 -0.0546875 9.550781 0 9.4375 0 Z M 3.234375 -5.1875 L 5.078125 -5.1875 C 6.703125 -5.1875 7.515625 -5.851562 7.515625 -7.1875 C 7.515625 -8.570312 6.703125 -9.265625 5.078125 -9.265625 L 3.234375 -9.265625 Z M 3.234375 -5.1875 "/></g></g></g><g fill="#543042" fill-opacity="1"><g transform="translate(241.221365, 195.898624)"><g><path d="M 11.0625 0 L 7.8125 0 C 7.695312 0 7.640625 -0.0546875 7.640625 -0.171875 L 7.640625 -0.90625 C 7.640625 -1.019531 7.695312 -1.078125 7.8125 -1.078125 L 8.8125 -1.078125 L 7.875 -3.578125 L 3.859375 -3.578125 L 2.921875 -1.078125 L 3.9375 -1.078125 C 4.050781 -1.078125 4.109375 -1.019531 4.109375 -0.90625 L 4.109375 -0.171875 C 4.109375 -0.0546875 4.050781 0 3.9375 0 L 0.6875 0 C 0.570312 0 0.515625 -0.0546875 0.515625 -0.171875 L 0.515625 -0.90625 C 0.515625 -1.019531 0.570312 -1.078125 0.6875 -1.078125 L 1.65625 -1.078125 L 4.75 -9.265625 L 3.96875 -9.265625 C 3.84375 -9.265625 3.78125 -9.320312 3.78125 -9.4375 L 3.78125 -10.171875 C 3.78125 -10.285156 3.84375 -10.34375 3.96875 -10.34375 L 5.9375 -10.34375 C 6.164062 -10.34375 6.335938 -10.296875 6.453125 -10.203125 C 6.578125 -10.109375 6.679688 -9.945312 6.765625 -9.71875 L 10.078125 -1.078125 L 11.0625 -1.078125 C 11.175781 -1.078125 11.234375 -1.019531 11.234375 -0.90625 L 11.234375 -0.171875 C 11.234375 -0.0546875 11.175781 0 11.0625 0 Z M 7.484375 -4.5625 L 5.890625 -8.84375 L 5.84375 -8.84375 L 4.234375 -4.5625 Z M 7.484375 -4.5625 "/></g></g></g><g fill="#543042" fill-opacity="1"><g transform="translate(253.323846, 195.898624)"><g><path d="M 4.921875 0 L 0.796875 0 C 0.679688 0 0.625 -0.0546875 0.625 -0.171875 L 0.625 -0.90625 C 0.625 -1.019531 0.679688 -1.078125 0.796875 -1.078125 L 1.90625 -1.078125 L 1.90625 -9.265625 L 0.796875 -9.265625 C 0.679688 -9.265625 0.625 -9.320312 0.625 -9.4375 L 0.625 -10.171875 C 0.625 -10.285156 0.679688 -10.34375 0.796875 -10.34375 L 4.6875 -10.34375 C 6.28125 -10.34375 7.546875 -9.882812 8.484375 -8.96875 C 9.421875 -8.050781 9.890625 -6.789062 9.890625 -5.1875 C 9.890625 -3.582031 9.441406 -2.316406 8.546875 -1.390625 C 7.660156 -0.460938 6.453125 0 4.921875 0 Z M 3.15625 -1.078125 L 4.578125 -1.078125 C 7.253906 -1.097656 8.59375 -2.457031 8.59375 -5.15625 C 8.59375 -6.457031 8.25 -7.46875 7.5625 -8.1875 C 6.875 -8.90625 5.863281 -9.265625 4.53125 -9.265625 L 3.15625 -9.265625 Z M 3.15625 -1.078125 "/></g></g></g><g fill="#543042" fill-opacity="1"><g transform="translate(263.972881, 195.898624)"><g><path d="M 8.53125 0 L 0.875 0 C 0.75 0 0.6875 -0.0546875 0.6875 -0.171875 L 0.6875 -0.90625 C 0.6875 -1.019531 0.75 -1.078125 0.875 -1.078125 L 1.96875 -1.078125 L 1.96875 -9.265625 L 0.875 -9.265625 C 0.75 -9.265625 0.6875 -9.320312 0.6875 -9.4375 L 0.6875 -10.171875 C 0.6875 -10.285156 0.75 -10.34375 0.875 -10.34375 L 8.53125 -10.34375 C 8.65625 -10.34375 8.71875 -10.285156 8.71875 -10.171875 L 8.71875 -7.84375 C 8.71875 -7.726562 8.65625 -7.671875 8.53125 -7.671875 L 7.75 -7.671875 C 7.632812 -7.671875 7.578125 -7.726562 7.578125 -7.84375 L 7.578125 -9.265625 L 3.234375 -9.265625 L 3.234375 -5.6875 L 6.875 -5.6875 C 7 -5.6875 7.0625 -5.628906 7.0625 -5.515625 L 7.0625 -4.78125 C 7.0625 -4.664062 7 -4.609375 6.875 -4.609375 L 3.234375 -4.609375 L 3.234375 -1.078125 L 7.5625 -1.078125 L 7.5625 -2.5 C 7.5625 -2.613281 7.625 -2.671875 7.75 -2.671875 L 8.53125 -2.671875 C 8.65625 -2.671875 8.71875 -2.613281 8.71875 -2.5 L 8.71875 -0.171875 C 8.71875 -0.0546875 8.65625 0 8.53125 0 Z M 8.53125 0 "/></g></g></g><g fill="#543042" fill-opacity="1"><g transform="translate(273.369934, 195.898624)"><g><path d="M 9.4375 0 L 8.1875 0 C 7.84375 0 7.550781 -0.226562 7.3125 -0.6875 L 5.96875 -3.4375 C 5.851562 -3.675781 5.726562 -3.851562 5.59375 -3.96875 C 5.46875 -4.09375 5.289062 -4.15625 5.0625 -4.15625 L 3.234375 -4.15625 L 3.234375 -1.078125 L 4.53125 -1.078125 C 4.644531 -1.078125 4.703125 -1.019531 4.703125 -0.90625 L 4.703125 -0.171875 C 4.703125 -0.0546875 4.644531 0 4.53125 0 L 0.875 0 C 0.75 0 0.6875 -0.0546875 0.6875 -0.171875 L 0.6875 -0.90625 C 0.6875 -1.019531 0.75 -1.078125 0.875 -1.078125 L 1.96875 -1.078125 L 1.96875 -9.265625 L 0.875 -9.265625 C 0.75 -9.265625 0.6875 -9.320312 0.6875 -9.4375 L 0.6875 -10.171875 C 0.6875 -10.285156 0.75 -10.34375 0.875 -10.34375 L 5.3125 -10.34375 C 6.34375 -10.34375 7.175781 -10.070312 7.8125 -9.53125 C 8.457031 -8.988281 8.78125 -8.222656 8.78125 -7.234375 C 8.78125 -5.722656 8.078125 -4.78125 6.671875 -4.40625 C 6.847656 -4.257812 7.070312 -3.9375 7.34375 -3.4375 L 8.5625 -1.078125 L 9.4375 -1.078125 C 9.550781 -1.078125 9.609375 -1.019531 9.609375 -0.90625 L 9.609375 -0.171875 C 9.609375 -0.0546875 9.550781 0 9.4375 0 Z M 3.234375 -5.1875 L 5.078125 -5.1875 C 6.703125 -5.1875 7.515625 -5.851562 7.515625 -7.1875 C 7.515625 -8.570312 6.703125 -9.265625 5.078125 -9.265625 L 3.234375 -9.265625 Z M 3.234375 -5.1875 "/></g></g></g><g fill="#b69262" fill-opacity="1"><g transform="translate(165.188182, 226.713326)"><g><path d="M 7.6875 0 L 5.421875 0 C 5.335938 0 5.296875 -0.0390625 5.296875 -0.125 L 5.296875 -0.625 C 5.296875 -0.707031 5.335938 -0.75 5.421875 -0.75 L 6.125 -0.75 L 5.46875 -2.484375 L 2.6875 -2.484375 L 2.03125 -0.75 L 2.734375 -0.75 C 2.804688 -0.75 2.84375 -0.707031 2.84375 -0.625 L 2.84375 -0.125 C 2.84375 -0.0390625 2.804688 0 2.734375 0 L 0.484375 0 C 0.398438 0 0.359375 -0.0390625 0.359375 -0.125 L 0.359375 -0.625 C 0.359375 -0.707031 0.398438 -0.75 0.484375 -0.75 L 1.15625 -0.75 L 3.296875 -6.4375 L 2.765625 -6.4375 C 2.671875 -6.4375 2.625 -6.472656 2.625 -6.546875 L 2.625 -7.0625 C 2.625 -7.144531 2.671875 -7.1875 2.765625 -7.1875 L 4.125 -7.1875 C 4.28125 -7.1875 4.398438 -7.148438 4.484375 -7.078125 C 4.566406 -7.015625 4.640625 -6.90625 4.703125 -6.75 L 7 -0.75 L 7.6875 -0.75 C 7.757812 -0.75 7.796875 -0.707031 7.796875 -0.625 L 7.796875 -0.125 C 7.796875 -0.0390625 7.757812 0 7.6875 0 Z M 5.203125 -3.171875 L 4.09375 -6.140625 L 4.0625 -6.140625 L 2.9375 -3.171875 Z M 5.203125 -3.171875 "/></g></g></g><g fill="#b69262" fill-opacity="1"><g transform="translate(176.864855, 226.713326)"><g><path d="M 1.171875 0 L 0.609375 0 C 0.523438 0 0.484375 -0.0390625 0.484375 -0.125 L 0.484375 -2.453125 C 0.484375 -2.546875 0.523438 -2.59375 0.609375 -2.59375 L 1.234375 -2.59375 C 1.316406 -2.59375 1.359375 -2.546875 1.359375 -2.453125 L 1.359375 -2.25 C 1.359375 -2.125 1.429688 -1.957031 1.578125 -1.75 C 1.734375 -1.539062 1.890625 -1.367188 2.046875 -1.234375 C 2.203125 -1.097656 2.40625 -0.976562 2.65625 -0.875 C 2.914062 -0.78125 3.195312 -0.734375 3.5 -0.734375 C 4.007812 -0.734375 4.410156 -0.835938 4.703125 -1.046875 C 4.992188 -1.265625 5.140625 -1.566406 5.140625 -1.953125 C 5.140625 -2.171875 5.054688 -2.359375 4.890625 -2.515625 C 4.734375 -2.671875 4.523438 -2.796875 4.265625 -2.890625 C 4.003906 -2.984375 3.710938 -3.066406 3.390625 -3.140625 C 3.078125 -3.222656 2.757812 -3.316406 2.4375 -3.421875 C 2.125 -3.523438 1.835938 -3.648438 1.578125 -3.796875 C 1.316406 -3.941406 1.101562 -4.140625 0.9375 -4.390625 C 0.78125 -4.648438 0.703125 -4.953125 0.703125 -5.296875 C 0.703125 -5.859375 0.910156 -6.320312 1.328125 -6.6875 C 1.753906 -7.050781 2.328125 -7.234375 3.046875 -7.234375 C 3.941406 -7.234375 4.597656 -6.972656 5.015625 -6.453125 L 5 -7.0625 C 5 -7.144531 5.039062 -7.1875 5.125 -7.1875 L 5.6875 -7.1875 C 5.769531 -7.1875 5.8125 -7.144531 5.8125 -7.0625 L 5.8125 -4.890625 C 5.8125 -4.804688 5.769531 -4.765625 5.6875 -4.765625 L 5.0625 -4.765625 C 4.976562 -4.765625 4.9375 -4.804688 4.9375 -4.890625 L 4.9375 -5.171875 C 4.9375 -5.441406 4.78125 -5.71875 4.46875 -6 C 4.164062 -6.28125 3.71875 -6.421875 3.125 -6.421875 C 2.6875 -6.421875 2.332031 -6.316406 2.0625 -6.109375 C 1.789062 -5.898438 1.65625 -5.628906 1.65625 -5.296875 C 1.65625 -5.066406 1.738281 -4.867188 1.90625 -4.703125 C 2.070312 -4.535156 2.285156 -4.398438 2.546875 -4.296875 C 2.816406 -4.203125 3.113281 -4.113281 3.4375 -4.03125 C 3.757812 -3.945312 4.078125 -3.851562 4.390625 -3.75 C 4.710938 -3.644531 5.007812 -3.523438 5.28125 -3.390625 C 5.550781 -3.253906 5.769531 -3.0625 5.9375 -2.8125 C 6.101562 -2.570312 6.1875 -2.285156 6.1875 -1.953125 C 6.1875 -1.359375 5.972656 -0.875 5.546875 -0.5 C 5.128906 -0.125 4.503906 0.0625 3.671875 0.0625 C 3.054688 0.0625 2.546875 -0.0546875 2.140625 -0.296875 C 1.742188 -0.546875 1.457031 -0.8125 1.28125 -1.09375 L 1.296875 -0.125 C 1.296875 -0.0390625 1.253906 0 1.171875 0 Z M 1.171875 0 "/></g></g></g><g fill="#b69262" fill-opacity="1"><g transform="translate(186.792217, 226.713326)"><g><path d="M 7.59375 0 L 5.1875 0 C 5.101562 0 5.0625 -0.0390625 5.0625 -0.125 L 5.0625 -0.625 C 5.0625 -0.707031 5.101562 -0.75 5.1875 -0.75 L 5.953125 -0.75 L 5.953125 -3.203125 L 2.234375 -3.203125 L 2.234375 -0.75 L 3.015625 -0.75 C 3.097656 -0.75 3.140625 -0.707031 3.140625 -0.625 L 3.140625 -0.125 C 3.140625 -0.0390625 3.097656 0 3.015625 0 L 0.609375 0 C 0.523438 0 0.484375 -0.0390625 0.484375 -0.125 L 0.484375 -0.625 C 0.484375 -0.707031 0.523438 -0.75 0.609375 -0.75 L 1.375 -0.75 L 1.375 -6.4375 L 0.609375 -6.4375 C 0.523438 -6.4375 0.484375 -6.472656 0.484375 -6.546875 L 0.484375 -7.0625 C 0.484375 -7.144531 0.523438 -7.1875 0.609375 -7.1875 L 3.015625 -7.1875 C 3.097656 -7.1875 3.140625 -7.144531 3.140625 -7.0625 L 3.140625 -6.546875 C 3.140625 -6.472656 3.097656 -6.4375 3.015625 -6.4375 L 2.234375 -6.4375 L 2.234375 -3.9375 L 5.953125 -3.9375 L 5.953125 -6.4375 L 5.1875 -6.4375 C 5.101562 -6.4375 5.0625 -6.472656 5.0625 -6.546875 L 5.0625 -7.0625 C 5.0625 -7.144531 5.101562 -7.1875 5.1875 -7.1875 L 7.59375 -7.1875 C 7.675781 -7.1875 7.71875 -7.144531 7.71875 -7.0625 L 7.71875 -6.546875 C 7.71875 -6.472656 7.675781 -6.4375 7.59375 -6.4375 L 6.828125 -6.4375 L 6.828125 -0.75 L 7.59375 -0.75 C 7.675781 -0.75 7.71875 -0.707031 7.71875 -0.625 L 7.71875 -0.125 C 7.71875 -0.0390625 7.675781 0 7.59375 0 Z M 7.59375 0 "/></g></g></g><g fill="#b69262" fill-opacity="1"><g transform="translate(198.258971, 226.713326)"><g><path d="M 5.90625 -2.59375 L 5.90625 -6.4375 L 5.125 -6.4375 C 5.050781 -6.4375 5.015625 -6.472656 5.015625 -6.546875 L 5.015625 -7.0625 C 5.015625 -7.144531 5.050781 -7.1875 5.125 -7.1875 L 7.546875 -7.1875 C 7.617188 -7.1875 7.65625 -7.144531 7.65625 -7.0625 L 7.65625 -6.546875 C 7.65625 -6.472656 7.617188 -6.4375 7.546875 -6.4375 L 6.765625 -6.4375 L 6.765625 -2.6875 C 6.765625 -1.789062 6.53125 -1.109375 6.0625 -0.640625 C 5.59375 -0.171875 4.929688 0.0625 4.078125 0.0625 C 3.222656 0.0625 2.554688 -0.171875 2.078125 -0.640625 C 1.609375 -1.109375 1.375 -1.789062 1.375 -2.6875 L 1.375 -6.4375 L 0.609375 -6.4375 C 0.523438 -6.4375 0.484375 -6.472656 0.484375 -6.546875 L 0.484375 -7.0625 C 0.484375 -7.144531 0.523438 -7.1875 0.609375 -7.1875 L 3.015625 -7.1875 C 3.097656 -7.1875 3.140625 -7.144531 3.140625 -7.0625 L 3.140625 -6.546875 C 3.140625 -6.472656 3.097656 -6.4375 3.015625 -6.4375 L 2.234375 -6.4375 L 2.234375 -2.65625 C 2.234375 -1.375 2.847656 -0.734375 4.078125 -0.734375 C 4.703125 -0.734375 5.160156 -0.898438 5.453125 -1.234375 C 5.753906 -1.566406 5.90625 -2.019531 5.90625 -2.59375 Z M 5.90625 -2.59375 "/></g></g></g><g fill="#b69262" fill-opacity="1"><g transform="translate(209.665757, 226.713326)"><g><path d="M 4.78125 0 L 2.453125 0 C 2.359375 0 2.3125 -0.0390625 2.3125 -0.125 L 2.3125 -0.625 C 2.3125 -0.707031 2.359375 -0.75 2.453125 -0.75 L 3.203125 -0.75 L 3.203125 -6.4375 L 1.3125 -6.4375 L 1.3125 -5.375 C 1.3125 -5.28125 1.269531 -5.234375 1.1875 -5.234375 L 0.625 -5.234375 C 0.53125 -5.234375 0.484375 -5.28125 0.484375 -5.375 L 0.484375 -7.046875 C 0.484375 -7.140625 0.53125 -7.1875 0.625 -7.1875 L 6.65625 -7.1875 C 6.75 -7.1875 6.796875 -7.140625 6.796875 -7.046875 L 6.796875 -5.375 C 6.796875 -5.28125 6.75 -5.234375 6.65625 -5.234375 L 6.078125 -5.234375 C 5.992188 -5.234375 5.953125 -5.28125 5.953125 -5.375 L 5.953125 -6.4375 L 4.078125 -6.4375 L 4.078125 -0.75 L 4.78125 -0.75 C 4.875 -0.75 4.921875 -0.707031 4.921875 -0.625 L 4.921875 -0.125 C 4.921875 -0.0390625 4.875 0 4.78125 0 Z M 4.78125 0 "/></g></g></g><g fill="#b69262" fill-opacity="1"><g transform="translate(220.202881, 226.713326)"><g><path d="M 7.4375 -3.625 C 7.4375 -2.53125 7.109375 -1.640625 6.453125 -0.953125 C 5.796875 -0.273438 4.96875 0.0625 3.96875 0.0625 C 2.976562 0.0625 2.148438 -0.28125 1.484375 -0.96875 C 0.816406 -1.65625 0.484375 -2.539062 0.484375 -3.625 C 0.484375 -4.71875 0.828125 -5.59375 1.515625 -6.25 C 2.203125 -6.90625 3.019531 -7.234375 3.96875 -7.234375 C 4.925781 -7.234375 5.742188 -6.90625 6.421875 -6.25 C 7.097656 -5.59375 7.4375 -4.71875 7.4375 -3.625 Z M 2.1875 -1.5 C 2.695312 -0.988281 3.289062 -0.734375 3.96875 -0.734375 C 4.644531 -0.734375 5.238281 -0.988281 5.75 -1.5 C 6.257812 -2.007812 6.515625 -2.707031 6.515625 -3.59375 C 6.515625 -4.488281 6.253906 -5.1875 5.734375 -5.6875 C 5.210938 -6.195312 4.625 -6.453125 3.96875 -6.453125 C 3.3125 -6.453125 2.722656 -6.195312 2.203125 -5.6875 C 1.679688 -5.1875 1.421875 -4.488281 1.421875 -3.59375 C 1.421875 -2.707031 1.675781 -2.007812 2.1875 -1.5 Z M 2.1875 -1.5 "/></g></g></g><g fill="#b69262" fill-opacity="1"><g transform="translate(231.399745, 226.713326)"><g><path d="M 1.171875 0 L 0.609375 0 C 0.523438 0 0.484375 -0.0390625 0.484375 -0.125 L 0.484375 -2.453125 C 0.484375 -2.546875 0.523438 -2.59375 0.609375 -2.59375 L 1.234375 -2.59375 C 1.316406 -2.59375 1.359375 -2.546875 1.359375 -2.453125 L 1.359375 -2.25 C 1.359375 -2.125 1.429688 -1.957031 1.578125 -1.75 C 1.734375 -1.539062 1.890625 -1.367188 2.046875 -1.234375 C 2.203125 -1.097656 2.40625 -0.976562 2.65625 -0.875 C 2.914062 -0.78125 3.195312 -0.734375 3.5 -0.734375 C 4.007812 -0.734375 4.410156 -0.835938 4.703125 -1.046875 C 4.992188 -1.265625 5.140625 -1.566406 5.140625 -1.953125 C 5.140625 -2.171875 5.054688 -2.359375 4.890625 -2.515625 C 4.734375 -2.671875 4.523438 -2.796875 4.265625 -2.890625 C 4.003906 -2.984375 3.710938 -3.066406 3.390625 -3.140625 C 3.078125 -3.222656 2.757812 -3.316406 2.4375 -3.421875 C 2.125 -3.523438 1.835938 -3.648438 1.578125 -3.796875 C 1.316406 -3.941406 1.101562 -4.140625 0.9375 -4.390625 C 0.78125 -4.648438 0.703125 -4.953125 0.703125 -5.296875 C 0.703125 -5.859375 0.910156 -6.320312 1.328125 -6.6875 C 1.753906 -7.050781 2.328125 -7.234375 3.046875 -7.234375 C 3.941406 -7.234375 4.597656 -6.972656 5.015625 -6.453125 L 5 -7.0625 C 5 -7.144531 5.039062 -7.1875 5.125 -7.1875 L 5.6875 -7.1875 C 5.769531 -7.1875 5.8125 -7.144531 5.8125 -7.0625 L 5.8125 -4.890625 C 5.8125 -4.804688 5.769531 -4.765625 5.6875 -4.765625 L 5.0625 -4.765625 C 4.976562 -4.765625 4.9375 -4.804688 4.9375 -4.890625 L 4.9375 -5.171875 C 4.9375 -5.441406 4.78125 -5.71875 4.46875 -6 C 4.164062 -6.28125 3.71875 -6.421875 3.125 -6.421875 C 2.6875 -6.421875 2.332031 -6.316406 2.0625 -6.109375 C 1.789062 -5.898438 1.65625 -5.628906 1.65625 -5.296875 C 1.65625 -5.066406 1.738281 -4.867188 1.90625 -4.703125 C 2.070312 -4.535156 2.285156 -4.398438 2.546875 -4.296875 C 2.816406 -4.203125 3.113281 -4.113281 3.4375 -4.03125 C 3.757812 -3.945312 4.078125 -3.851562 4.390625 -3.75 C 4.710938 -3.644531 5.007812 -3.523438 5.28125 -3.390625 C 5.550781 -3.253906 5.769531 -3.0625 5.9375 -2.8125 C 6.101562 -2.570312 6.1875 -2.285156 6.1875 -1.953125 C 6.1875 -1.359375 5.972656 -0.875 5.546875 -0.5 C 5.128906 -0.125 4.503906 0.0625 3.671875 0.0625 C 3.054688 0.0625 2.546875 -0.0546875 2.140625 -0.296875 C 1.742188 -0.546875 1.457031 -0.8125 1.28125 -1.09375 L 1.296875 -0.125 C 1.296875 -0.0390625 1.253906 0 1.171875 0 Z M 1.171875 0 "/></g></g></g><g fill="#b69262" fill-opacity="1"><g transform="translate(241.327105, 226.713326)"><g><path d="M 7.59375 0 L 5.1875 0 C 5.101562 0 5.0625 -0.0390625 5.0625 -0.125 L 5.0625 -0.625 C 5.0625 -0.707031 5.101562 -0.75 5.1875 -0.75 L 5.953125 -0.75 L 5.953125 -3.203125 L 2.234375 -3.203125 L 2.234375 -0.75 L 3.015625 -0.75 C 3.097656 -0.75 3.140625 -0.707031 3.140625 -0.625 L 3.140625 -0.125 C 3.140625 -0.0390625 3.097656 0 3.015625 0 L 0.609375 0 C 0.523438 0 0.484375 -0.0390625 0.484375 -0.125 L 0.484375 -0.625 C 0.484375 -0.707031 0.523438 -0.75 0.609375 -0.75 L 1.375 -0.75 L 1.375 -6.4375 L 0.609375 -6.4375 C 0.523438 -6.4375 0.484375 -6.472656 0.484375 -6.546875 L 0.484375 -7.0625 C 0.484375 -7.144531 0.523438 -7.1875 0.609375 -7.1875 L 3.015625 -7.1875 C 3.097656 -7.1875 3.140625 -7.144531 3.140625 -7.0625 L 3.140625 -6.546875 C 3.140625 -6.472656 3.097656 -6.4375 3.015625 -6.4375 L 2.234375 -6.4375 L 2.234375 -3.9375 L 5.953125 -3.9375 L 5.953125 -6.4375 L 5.1875 -6.4375 C 5.101562 -6.4375 5.0625 -6.472656 5.0625 -6.546875 L 5.0625 -7.0625 C 5.0625 -7.144531 5.101562 -7.1875 5.1875 -7.1875 L 7.59375 -7.1875 C 7.675781 -7.1875 7.71875 -7.144531 7.71875 -7.0625 L 7.71875 -6.546875 C 7.71875 -6.472656 7.675781 -6.4375 7.59375 -6.4375 L 6.828125 -6.4375 L 6.828125 -0.75 L 7.59375 -0.75 C 7.675781 -0.75 7.71875 -0.707031 7.71875 -0.625 L 7.71875 -0.125 C 7.71875 -0.0390625 7.675781 0 7.59375 0 Z M 7.59375 0 "/></g></g></g><g fill="#b69262" fill-opacity="1"><g transform="translate(252.793855, 226.713326)"><g><path d="M 1.09375 -0.734375 C 1.1875 -0.640625 1.234375 -0.523438 1.234375 -0.390625 C 1.234375 -0.265625 1.1875 -0.15625 1.09375 -0.0625 C 1 0.0195312 0.882812 0.0625 0.75 0.0625 C 0.625 0.0625 0.515625 0.0195312 0.421875 -0.0625 C 0.328125 -0.15625 0.28125 -0.265625 0.28125 -0.390625 C 0.28125 -0.523438 0.328125 -0.640625 0.421875 -0.734375 C 0.515625 -0.828125 0.625 -0.875 0.75 -0.875 C 0.882812 -0.875 1 -0.828125 1.09375 -0.734375 Z M 1.09375 -0.734375 "/></g></g></g><g fill="#b69262" fill-opacity="1"><g transform="translate(257.573251, 226.713326)"><g><path d="M 3.015625 0 L 0.609375 0 C 0.523438 0 0.484375 -0.0390625 0.484375 -0.125 L 0.484375 -0.625 C 0.484375 -0.707031 0.523438 -0.75 0.609375 -0.75 L 1.375 -0.75 L 1.375 -6.4375 L 0.609375 -6.4375 C 0.523438 -6.4375 0.484375 -6.472656 0.484375 -6.546875 L 0.484375 -7.0625 C 0.484375 -7.144531 0.523438 -7.1875 0.609375 -7.1875 L 3.015625 -7.1875 C 3.097656 -7.1875 3.140625 -7.144531 3.140625 -7.0625 L 3.140625 -6.546875 C 3.140625 -6.472656 3.097656 -6.4375 3.015625 -6.4375 L 2.234375 -6.4375 L 2.234375 -0.75 L 3.015625 -0.75 C 3.097656 -0.75 3.140625 -0.707031 3.140625 -0.625 L 3.140625 -0.125 C 3.140625 -0.0390625 3.097656 0 3.015625 0 Z M 3.015625 0 "/></g></g></g><g fill="#b69262" fill-opacity="1"><g transform="translate(264.461816, 226.713326)"><g><path d="M 6.703125 0 L 6.15625 0 C 6.03125 0 5.929688 -0.0234375 5.859375 -0.078125 C 5.785156 -0.128906 5.71875 -0.207031 5.65625 -0.3125 L 2.765625 -4.828125 L 2.265625 -5.671875 L 2.234375 -5.671875 L 2.234375 -0.75 L 3.015625 -0.75 C 3.097656 -0.75 3.140625 -0.707031 3.140625 -0.625 L 3.140625 -0.125 C 3.140625 -0.0390625 3.097656 0 3.015625 0 L 0.609375 0 C 0.523438 0 0.484375 -0.0390625 0.484375 -0.125 L 0.484375 -0.625 C 0.484375 -0.707031 0.523438 -0.75 0.609375 -0.75 L 1.375 -0.75 L 1.375 -6.4375 L 0.609375 -6.4375 C 0.523438 -6.4375 0.484375 -6.472656 0.484375 -6.546875 L 0.484375 -7.0625 C 0.484375 -7.144531 0.523438 -7.1875 0.609375 -7.1875 L 2.015625 -7.1875 C 2.203125 -7.1875 2.367188 -7.070312 2.515625 -6.84375 L 5.375 -2.375 L 5.9375 -1.40625 L 5.953125 -1.40625 L 5.953125 -6.4375 L 5.1875 -6.4375 C 5.101562 -6.4375 5.0625 -6.472656 5.0625 -6.546875 L 5.0625 -7.0625 C 5.0625 -7.144531 5.101562 -7.1875 5.1875 -7.1875 L 7.59375 -7.1875 C 7.675781 -7.1875 7.71875 -7.144531 7.71875 -7.0625 L 7.71875 -6.546875 C 7.71875 -6.472656 7.675781 -6.4375 7.59375 -6.4375 L 6.828125 -6.4375 L 6.828125 -0.125 C 6.828125 -0.0390625 6.785156 0 6.703125 0 Z M 6.703125 0 "/></g></g></g><g fill="#b69262" fill-opacity="1"><g transform="translate(275.928566, 226.713326)"><g><path d="M 6.703125 0 L 6.15625 0 C 6.03125 0 5.929688 -0.0234375 5.859375 -0.078125 C 5.785156 -0.128906 5.71875 -0.207031 5.65625 -0.3125 L 2.765625 -4.828125 L 2.265625 -5.671875 L 2.234375 -5.671875 L 2.234375 -0.75 L 3.015625 -0.75 C 3.097656 -0.75 3.140625 -0.707031 3.140625 -0.625 L 3.140625 -0.125 C 3.140625 -0.0390625 3.097656 0 3.015625 0 L 0.609375 0 C 0.523438 0 0.484375 -0.0390625 0.484375 -0.125 L 0.484375 -0.625 C 0.484375 -0.707031 0.523438 -0.75 0.609375 -0.75 L 1.375 -0.75 L 1.375 -6.4375 L 0.609375 -6.4375 C 0.523438 -6.4375 0.484375 -6.472656 0.484375 -6.546875 L 0.484375 -7.0625 C 0.484375 -7.144531 0.523438 -7.1875 0.609375 -7.1875 L 2.015625 -7.1875 C 2.203125 -7.1875 2.367188 -7.070312 2.515625 -6.84375 L 5.375 -2.375 L 5.9375 -1.40625 L 5.953125 -1.40625 L 5.953125 -6.4375 L 5.1875 -6.4375 C 5.101562 -6.4375 5.0625 -6.472656 5.0625 -6.546875 L 5.0625 -7.0625 C 5.0625 -7.144531 5.101562 -7.1875 5.1875 -7.1875 L 7.59375 -7.1875 C 7.675781 -7.1875 7.71875 -7.144531 7.71875 -7.0625 L 7.71875 -6.546875 C 7.71875 -6.472656 7.675781 -6.4375 7.59375 -6.4375 L 6.828125 -6.4375 L 6.828125 -0.125 C 6.828125 -0.0390625 6.785156 0 6.703125 0 Z M 6.703125 0 "/></g></g></g></svg>